<?xml version="1.0" encoding="utf-8"?>
<!-- Generator: Adobe Illustrator 23.0.1, SVG Export Plug-In . SVG Version: 6.00 Build 0)  -->
<svg version="1.1" id="Layer_1" xmlns="http://www.w3.org/2000/svg" xmlns:xlink="http://www.w3.org/1999/xlink" x="0px" y="0px"
	 viewBox="0 0 1080 1080" style="enable-background:new 0 0 1080 1080;" xml:space="preserve">
<style type="text/css">
	.st0{fill:url(#SVGID_1_);}
	.st1{fill:url(#SVGID_2_);}
	.st2{fill:url(#SVGID_3_);}
	.st3{fill:url(#SVGID_4_);}
	.st4{fill:url(#SVGID_5_);}
	.st5{fill:url(#SVGID_6_);}
</style>
<g>
	<linearGradient id="SVGID_1_" gradientUnits="userSpaceOnUse" x1="358.1882" y1="380.093" x2="358.1882" y2="733.1122">
		<stop  offset="0" style="stop-color:#00B7F9"/>
		<stop  offset="0.6269" style="stop-color:#2C23D4"/>
		<stop  offset="1" style="stop-color:#BB52FF"/>
	</linearGradient>
	<path class="st0" d="M323.98,799.07c-0.16-1.29-0.37-2.13-0.36-2.97c0.11-27.04,0.06-54.08,0.41-81.11
		c0.63-47.68,24.07-80.68,66.03-101.55c15.06-7.49,30.92-12.78,47.23-16.74c1.55-0.38,3.09-0.76,5.14-1.26c0,0-49.7,0.42-72.62,9.78
		c-41.62,16.99-63.55,48.74-68.43,92.7c-1.42,12.81-1.4,25.81-1.49,38.73c-0.2,27.48-0.04,54.96-0.03,82.44c0,1.73,0,3.46,0,5.98
		c7.32-0.32,14.15-0.5,20.97-0.94c33-2.12,66.27-11.09,95.37-27.49c31.05-17.49,54.7-43.16,74.46-72.47
		c4.9-7.27,9.51-14.74,13.8-22.38c14.58-25.98,16.88-58.47,6.67-86.35c-0.2-0.55-0.4-1.09-0.61-1.63
		c-8.23-21.44-21.19-38.87-42.2-49.37c-10.53-5.26-21.71-8.12-33.52-8.18c-15.14-0.08-30.27,0.04-45.41-0.06
		c-47.72-0.32-85.17-20.59-113.03-58.87c-20.8-28.59-33.17-61-41.87-95c-8.67-33.84-13.18-68.32-16.02-103.06
		c-0.47-5.7-0.84-11.41-1.25-17.12c-0.01-0.13,0.1-0.27,0.23-0.62c0.42-0.11,0.96-0.37,1.5-0.36c33.16,0.57,66.06,3.18,97.96,13.11
		c40.7,12.66,74.31,35.9,101.77,68.33c30.87,36.47,52.03,78.43,69.55,122.48c15.21,38.27,39.51,119.74,39.51,119.74
		s0.19-1.46,0.19-2.19c0-1.46,0-3.01,0-4.64c-0.11-64.01-14.73-127.24-43.3-184.52c-2.91-5.83-5.78-11.22-8.53-15.92
		c-20.47-34.89-44.92-66.46-77.13-91.41c-33.31-25.8-71.37-40.4-112.7-47.04c-32.18-5.17-64.62-5.97-97.52-5.59
		c-0.12,1.2-0.37,2.31-0.31,3.4c2.79,54.36,7.55,108.48,22.28,161.16c9.87,35.32,23.8,68.87,46.31,98.24
		c32.38,42.26,75.02,64.84,128.56,65.79c15.87,0.28,31.75,0.22,47.61-0.14c22.13-0.49,37.88,9.69,48.76,28.29
		c1.06,1.81,2.12,4.04,3.18,6.58c26.29,62.84-32.24,131.12-83.88,160.03c-19.92,11.15-42.27,18.12-64.9,20.84
		C332.31,798.22,328.25,798.61,323.98,799.07z"/>
	
		<linearGradient id="SVGID_2_" gradientUnits="userSpaceOnUse" x1="-2306.5134" y1="380.093" x2="-2306.5134" y2="733.1122" gradientTransform="matrix(-1 0 0 1 -1584.2684 0)">
		<stop  offset="0" style="stop-color:#00B7F9"/>
		<stop  offset="0.6269" style="stop-color:#2C23D4"/>
		<stop  offset="1" style="stop-color:#BB52FF"/>
	</linearGradient>
	<path class="st1" d="M756.45,799.07c0.16-1.29,0.37-2.13,0.36-2.97c-0.11-27.04-0.06-54.08-0.41-81.11
		c-0.63-47.68-24.07-80.68-66.03-101.55c-15.06-7.49-30.92-12.78-47.23-16.74c-1.55-0.38-3.09-0.76-5.14-1.26
		c0,0,49.7,0.42,72.62,9.78c41.62,16.99,63.55,48.74,68.43,92.7c1.42,12.81,1.4,25.81,1.49,38.73c0.2,27.48,0.04,54.96,0.03,82.44
		c0,1.73,0,3.46,0,5.98c-7.32-0.32-14.15-0.5-20.97-0.94c-33-2.12-66.27-11.09-95.37-27.49c-31.05-17.49-54.7-43.16-74.46-72.47
		c-4.9-7.27-9.51-14.74-13.8-22.38c-14.58-25.98-16.88-58.47-6.67-86.35c0.2-0.55,0.41-1.09,0.61-1.63
		c8.23-21.44,21.19-38.87,42.2-49.37c10.53-5.26,21.71-8.12,33.52-8.18c15.14-0.08,30.27,0.04,45.41-0.06
		c47.72-0.32,85.17-20.59,113.03-58.87c20.8-28.59,33.17-61,41.87-95c8.67-33.84,13.18-68.32,16.02-103.06
		c0.47-5.7,0.84-11.41,1.25-17.12c0.01-0.13-0.1-0.27-0.23-0.62c-0.42-0.11-0.96-0.37-1.5-0.36c-33.16,0.57-66.06,3.18-97.96,13.11
		c-40.7,12.66-74.31,35.9-101.77,68.33c-30.87,36.47-52.03,78.43-69.55,122.48c-15.21,38.27-39.51,119.74-39.51,119.74
		s-0.19-1.46-0.19-2.19c0-1.46,0-3.01,0-4.64c0.11-64.01,14.73-127.24,43.3-184.52c2.91-5.83,5.78-11.22,8.53-15.92
		c20.47-34.89,44.92-66.46,77.13-91.41c33.31-25.8,71.37-40.4,112.7-47.04c32.18-5.17,64.62-5.97,97.52-5.59
		c0.12,1.2,0.37,2.31,0.31,3.4c-2.78,54.36-7.55,108.48-22.28,161.16c-9.87,35.32-23.8,68.87-46.31,98.24
		c-32.38,42.26-75.02,64.84-128.56,65.79c-15.87,0.28-31.75,0.22-47.61-0.14c-22.13-0.49-37.88,9.69-48.76,28.29
		c-1.06,1.81-2.12,4.04-3.18,6.58C569,679.7,627.53,747.98,679.17,776.89c19.92,11.15,42.27,18.12,64.9,20.84
		C748.12,798.22,752.18,798.61,756.45,799.07z"/>
	<linearGradient id="SVGID_3_" gradientUnits="userSpaceOnUse" x1="540.0631" y1="365.4651" x2="540.0631" y2="829.778">
		<stop  offset="0" style="stop-color:#00B7F9"/>
		<stop  offset="0.6269" style="stop-color:#2C23D4"/>
		<stop  offset="1" style="stop-color:#BB52FF"/>
	</linearGradient>
	<path class="st2" d="M540.22,454.29c-15.32,0.09-27.62-11.95-27.91-27.32c-0.28-15.16,12.07-28.08,27.02-28.28
		c15.79-0.21,28.53,12.29,28.49,27.96C567.78,441.84,555.43,454.21,540.22,454.29z"/>
</g>
</svg>
