<?xml version="1.0" encoding="utf-8"?>
<!-- Generator: Adobe Illustrator 23.0.1, SVG Export Plug-In . SVG Version: 6.00 Build 0)  -->
<svg version="1.1" id="Layer_1" xmlns="http://www.w3.org/2000/svg" xmlns:xlink="http://www.w3.org/1999/xlink" x="0px" y="0px"
	 viewBox="0 0 1080 1080" style="enable-background:new 0 0 1080 1080;" xml:space="preserve">
<style type="text/css">
	.st0{fill:#FFFFFF;}
</style>
<g>
	<g>
		<path d="M280.68,773.16c-14.34-0.16-28.66-0.55-42.7-3.95c-3.74-0.91-7.42-1.96-10.69-4.12c-4.06-2.68-4.38-5.78-0.88-9.23
			c2.88-2.85,6.59-4.22,10.28-5.53c8.23-2.92,16.78-4.54,25.37-5.99c3.54-0.6,7.08-1.26,10.15-3.29c2.47-1.63,2.36-3.38-0.27-4.78
			c-2.52-1.33-5.36-1.67-8.07-2.41c-2.39-0.65-4.8-1.25-6.88-2.67c-2.6-1.78-2.92-4.15-0.83-6.51c2.66-3.01,6.32-4.28,9.99-5.43
			c8.44-2.65,17.14-3.6,25.94-4.23c11.38-0.81,22.66-0.3,33.88,1.67c3.12,0.55,6.16,1.43,8.92,3.05c3.6,2.12,3.81,5.2,0.55,7.75
			c-0.93,0.73-2.02,1.27-3.02,1.92c-1.21,0.78-2.76,1.46-2.63,3.15c0.13,1.83,1.83,2.32,3.25,2.86c2.24,0.85,4.56,1.46,6.94,1.74
			c11.6,1.38,23.21,2.59,34.79,4.14c7.86,1.05,15.66,2.58,23.07,5.59c2.54,1.03,5.02,2.2,6.84,4.35c2.04,2.41,1.97,4.25-0.14,6.56
			c-2.09,2.29-4.85,3.44-7.68,4.44c-8.53,3.01-17.45,3.96-26.37,4.78c-13.33,1.23-26.66,2.4-40.01,3.41
			c-11.39,0.87-22.76,2.03-34.2,2.29C291.08,772.86,285.89,773.34,280.68,773.16z"/>
		<path d="M354.03,798.32c-8.49-0.09-15.68-0.73-22.49-3.55c-2.78-1.15-5.9-2.5-6.03-5.93c-0.13-3.51,3.08-4.85,5.73-6.17
			c4.26-2.11,8.93-2.77,13.59-3.3c9.13-1.04,18.2-0.73,27.09,1.83c2.46,0.71,4.84,1.65,6.86,3.31c3.11,2.56,3.1,5.68-0.15,8.08
			c-4.47,3.31-9.74,4.39-15.1,5.06C359.98,798.09,356.42,798.53,354.03,798.32z"/>
	</g>
	<g>
		<path d="M570.96,679.08c-9.02,4.41-18.26,8.97-27.81,13.73H351.98c-21.06,0-38.2-17.13-38.2-38.19V475.91
			c0-12.96,3.9-25.43,11.27-36.08c7.37-10.65,17.68-18.69,29.8-23.24l7.35-2.77c19.25-7.24,32.18-25.91,32.18-46.47
			c0-3.79,3.07-6.87,6.86-6.87c3.79,0,6.86,3.08,6.86,6.87c0,12.95-3.9,25.42-11.27,36.07c-7.37,10.65-17.68,18.69-29.8,23.24
			l-7.36,2.77c-19.25,7.23-32.17,25.91-32.17,46.47v178.71c0,13.49,10.97,24.46,24.46,24.46H570.96z"/>
		<path d="M654.93,475.91v157.72c-0.94,0.52-1.9,1.06-2.89,1.62c-0.32,0.18-0.66,0.35-0.99,0.52c-1.77,0.91-4.43,2.26-6.77,4.82
			c-1.12,0.66-2.14,1.41-3.08,2.24V475.91c0-20.56-12.93-39.24-32.18-46.47l-7.36-2.77c-12.12-4.56-22.42-12.59-29.8-23.24
			c-7.37-10.65-11.27-23.12-11.27-36.07c0-3.79,3.08-6.87,6.87-6.87c3.79,0,6.86,3.08,6.86,6.87c0,20.56,12.93,39.23,32.17,46.47
			l7.36,2.77c12.12,4.56,22.43,12.59,29.8,23.24C651.04,450.48,654.93,462.95,654.93,475.91z"/>
		<path d="M591.14,374.22H377.57c-3.79,0-6.86-3.07-6.86-6.86c0-3.79,3.07-6.86,6.86-6.86h213.57c3.79,0,6.86,3.07,6.86,6.86
			C598.01,371.15,594.93,374.22,591.14,374.22z"/>
		<path d="M557.1,278.22H411.61c-15.27,0-27.64,12.38-27.64,27.64v20.17c0,15.27,12.38,27.64,27.64,27.64H557.1
			c15.27,0,27.64-12.38,27.64-27.64v-20.17C584.74,290.6,572.37,278.22,557.1,278.22z"/>
		<path d="M618.3,484.21c-16.58,5.41-31.75-9.76-26.34-26.34H376.75c5.42,16.58-9.76,31.76-26.34,26.34c0,0,0,0,0,0v140.48
			c0,0,0,0.01,0.01,0.01c14.24-4.65,27.45,5.9,27.45,19.48c0,3.79,3.07,6.87,6.87,6.87h199.25c3.79,0,6.87-3.08,6.87-6.87
			c0-13.58,13.21-24.13,27.45-19.48c0,0,0.01,0,0.01-0.01L618.3,484.21C618.3,484.21,618.3,484.21,618.3,484.21z M425.75,508.5
			c1.4-1.44,2.99-2.16,4.76-2.16c1.92,0,3.52,0.72,4.81,2.16c1.29,1.44,1.94,3.19,1.94,5.26c0,2.07-0.65,3.82-1.94,5.26
			c-1.29,1.44-2.9,2.16-4.81,2.16c-1.92,0-3.54-0.72-4.87-2.16c-1.33-1.44-1.99-3.19-1.99-5.26
			C423.65,511.69,424.35,509.94,425.75,508.5z M405.44,587.36c-1.37,1.47-3.01,2.21-4.93,2.21c-1.99,0-3.67-0.74-5.04-2.21
			c-1.37-1.47-2.05-3.28-2.05-5.42c0-2.06,0.72-3.85,2.16-5.37c1.44-1.51,3.08-2.27,4.93-2.27c1.99,0,3.65,0.74,4.98,2.21
			c1.33,1.48,1.99,3.28,1.99,5.42C407.49,584.08,406.81,585.89,405.44,587.36z M443.35,587.8h-24.68v-4.65
			c2.21,0,3.76-0.52,4.65-1.55c0.89-1.03,1.42-2.47,1.6-4.32c0.18-1.84,0.28-3.98,0.28-6.42v-22.91c0-1.25,0.04-2.53,0.11-3.82
			c0.07-1.29,0.18-2.67,0.33-4.15c-1.26,0.07-2.58,0.13-3.98,0.17c-1.4,0.04-2.69,0.09-3.87,0.17v-5.87c3.32,0,5.96-0.17,7.91-0.5
			c1.95-0.33,3.47-0.72,4.54-1.16c1.07-0.44,1.86-0.92,2.38-1.44h4.21v42.72c0,1.33-0.04,2.68-0.11,4.04
			c-0.07,1.37-0.19,2.75-0.33,4.15c1.18-0.07,2.38-0.13,3.6-0.17c1.22-0.04,2.34-0.09,3.38-0.17V587.8z M511.97,587.8h-24.68v-4.65
			c2.21,0,3.76-0.52,4.65-1.55c0.89-1.03,1.42-2.47,1.6-4.32c0.18-1.84,0.28-3.98,0.28-6.42v-15.49
			c-0.07-5.83-1.02-10.22-2.82-13.17c-1.81-2.95-4.7-4.39-8.69-4.32c-2.36,0-4.69,0.59-6.97,1.77c-2.29,1.18-4.21,2.62-5.76,4.32
			c0,0.74,0,1.53,0,2.38c0,0.85,0,1.72,0,2.6v25.12c0,1.33-0.04,2.68-0.11,4.04c-0.07,1.37-0.18,2.75-0.33,4.15
			c1.18-0.07,2.38-0.13,3.6-0.17c1.22-0.04,2.34-0.09,3.38-0.17v5.87h-24.68v-4.65c2.21,0,3.76-0.52,4.65-1.55
			c0.89-1.03,1.42-2.47,1.6-4.32c0.18-1.84,0.28-3.98,0.28-6.42l0.11-23.02c0-1.18,0.02-2.45,0.06-3.82
			c0.04-1.36,0.17-2.71,0.39-4.04c-1.33,0.07-2.68,0.13-4.04,0.17c-1.37,0.04-2.64,0.09-3.82,0.17v-5.87c3.32,0,5.92-0.17,7.8-0.5
			c1.88-0.33,3.32-0.72,4.32-1.16c1-0.44,1.75-0.92,2.27-1.44h3.98c0.07,0.66,0.13,1.29,0.17,1.88c0.04,0.59,0.07,1.22,0.11,1.88
			c0.04,0.66,0.09,1.51,0.17,2.55c1.62-1.33,3.39-2.51,5.31-3.54c1.92-1.03,3.93-1.86,6.03-2.49c2.1-0.63,4.11-0.94,6.03-0.94
			c6.57,0,11.31,1.99,14.22,5.98c2.91,3.98,4.37,10.22,4.37,18.7v18.7c0,1.33-0.04,2.68-0.11,4.04c-0.07,1.37-0.18,2.75-0.33,4.15
			c1.18-0.07,2.38-0.13,3.6-0.17c1.22-0.04,2.34-0.09,3.38-0.17V587.8z M575.28,587.8h-10.96c-2.14,0-4.11-1-5.92-2.99
			c-1.81-1.99-3.78-4.39-5.92-7.19c-1.77-2.36-3.39-4.59-4.87-6.7c-1.48-2.1-2.82-4-4.04-5.7c-1.22-1.7-2.27-3.02-3.15-3.98
			l-3.87,0.22v12.62c0,1.33-0.02,2.68-0.06,4.04c-0.04,1.37-0.17,2.75-0.39,4.15c1.18-0.07,2.4-0.13,3.65-0.17
			c1.25-0.04,2.4-0.09,3.43-0.17v5.87H518.5v-4.65c2.21,0,3.74-0.52,4.59-1.55c0.85-1.03,1.36-2.47,1.55-4.32
			c0.18-1.84,0.28-3.98,0.28-6.42l0.11-50.03c0-1.25,0.02-2.53,0.06-3.82c0.04-1.29,0.13-2.67,0.28-4.15
			c-1.26,0.07-2.58,0.13-3.98,0.17c-1.4,0.04-2.66,0.09-3.76,0.17v-5.87c3.25,0,5.85-0.17,7.8-0.5c1.95-0.33,3.49-0.72,4.59-1.16
			c1.11-0.44,1.88-0.92,2.32-1.44h4.21v51.69h4.76l11.62-12.51c1.18-1.18,2.21-2.21,3.1-3.1c0.89-0.89,1.77-1.66,2.66-2.32
			l-6.97,0.22v-5.76h21.8V537c-2.58,0.3-4.93,1.05-7.03,2.27c-2.1,1.22-4,2.6-5.7,4.15c-1.7,1.55-3.14,2.99-4.32,4.32l-8.19,8.63
			c1.4,0.66,2.62,1.49,3.65,2.49c1.03,1,2.14,2.27,3.32,3.82l7.75,9.96c0.37,0.44,0.98,1.24,1.83,2.38c0.85,1.14,1.86,2.34,3.04,3.6
			c1.18,1.26,2.42,2.32,3.71,3.21c1.29,0.89,2.53,1.33,3.71,1.33V587.8z"/>
	</g>
	<g>
		<path d="M645.88,655.94c0.49-3.18,2.18-5.34,5.04-6.59c0.2-0.09,0.45-0.17,0.55-0.33c1.34-2.32,3.8-3.13,5.94-4.34
			c3.1-1.76,6.24-3.46,9.44-5.05c1.18-0.59,2.55-0.79,3.82-1.17c0.51-0.15,1.04-0.27,1.51-0.51c19.7-10.29,39.45-20.48,59.67-29.72
			c20.26-9.25,40.66-18.17,61.01-27.22c2.47-1.1,4.96-2.14,7.44-3.21c1.39-0.6,2.75-1.26,4.35-0.99c0.37,0.06,0.83-0.18,1.21-0.35
			c4.01-1.84,7.97-3.8,12.03-5.53c3.18-1.36,6.44-2.54,9.72-3.62c4.93-1.61,9.53-0.52,13.76,2.24c4.57,2.98,7.7,7.22,10.16,12
			c2.66,5.16,4.42,10.57,4.48,16.43c0.06,5.27-1.6,10-4.7,14.21c-0.56,0.77-1.33,1.43-2.11,1.98c-3.86,2.69-7.75,5.32-11.77,8.06
			c0.24,0.66,0.62,1.34,0.71,2.05c0.25,1.91,0.4,3.83,0.54,5.74c0.06,0.85,0.11,1.74-0.03,2.57c-0.5,2.94-2.04,5.23-4.64,6.7
			c-8.52,4.82-17.04,9.64-25.61,14.38c-14.43,7.98-28.86,15.96-43.36,23.82c-11.36,6.16-22.83,12.13-34.25,18.18
			c-1.88,1-3.86,1.66-6.04,1.63c-3.99-0.06-8.4-3.51-8.13-8.02c0.01-0.2-0.06-0.4-0.11-0.76c-0.62,0.31-1.15,0.54-1.66,0.82
			c-4.75,2.6-9.41,5.35-14.25,7.76c-4.3,2.14-7.89,5.41-12.25,7.42c-2.4,1.1-4.78,2.25-7.17,3.39c-0.29,0.14-0.57,0.31-0.83,0.49
			c-2.24,1.55-4.66,2.24-7.21,1.54c-9.01,4.79-17.84,9.59-26.76,14.22c-35.42,18.41-71.37,35.7-108.02,51.53
			c-6.01,2.59-11.99,5.34-18.2,7.35c-5.6,1.81-10.84,4.51-16.48,6.16c-1.44,0.42-2.93,0.71-4.39,1.08c-0.36,0.09-0.73,0.2-1.05,0.38
			c-3.37,1.87-6.52,1.29-9.32-1.06c-1.55-1.3-2.79-2.97-4.37-4.69c-4.09,1.93-8.42,3.86-12.66,6c-6.77,3.42-7.71,4.64-13.56,9.51
			c-0.95,0.79-1.99,1.01-3.18,0.69c-10.3-2.79-20.67-2.33-31.05-0.62c-2.08,0.34-4.14,0.81-6.2,1.2c-1.85,0.35-3.39-0.34-4.1-1.84
			c-0.71-1.5-0.35-3.27,1.06-4.38c4.13-3.27,7.2-7.47,10.23-11.67c3.81-5.28,6.93-10.97,9.6-16.9c0.67-1.49,1.57-2.28,3.22-2.5
			c13.6-1.83,20.51-4.27,32.42-10.84c0.19-0.1,0.35-0.24,0.57-0.38c0-1.49-0.12-3.01,0.03-4.5c0.33-3.36,1.91-5.93,5.13-7.3
			c0.25-0.11,0.56-0.18,0.71-0.37c2.78-3.6,7.08-5.02,10.68-7.44c1.21-0.81,2.53-1.46,3.8-2.17c0.38-0.21,0.75-0.48,1.16-0.58
			c4.9-1.22,8.89-4.31,13.29-6.54c13.3-6.77,26.44-13.84,39.79-20.5c18.67-9.32,37.42-18.51,56.25-27.51
			c13.99-6.69,28.17-13,42.27-19.47C644.58,656.52,645.17,656.26,645.88,655.94z M706.33,686.48c0.22-0.11,0.43-0.21,0.65-0.32
			c0.21-0.11,0.43-0.22,0.64-0.33c0.23-0.1,0.45-0.2,0.68-0.3c0.44-0.19,0.9-0.35,1.33-0.58c5.61-2.92,11.23-5.8,16.81-8.77
			c15.23-8.08,30.53-16.05,45.65-24.33c16.6-9.08,33.04-18.45,49.54-27.7c0.14-0.08,0.24-0.2,0.43-0.36c0-0.41,0-0.85,0-1.35
			c-0.24,0.1-0.4,0.15-0.54,0.23c-20.17,11.22-40.32,22.49-60.52,33.66c-17.07,9.45-34.2,18.79-51.3,28.2
			c-0.5,0.27-0.92,0.67-1.38,1.02c-0.23,0.1-0.45,0.2-0.68,0.3c-0.21,0.11-0.42,0.22-0.64,0.33c-0.21,0.11-0.43,0.22-0.64,0.32
			c-0.09,0.03-0.17,0.06-0.08,0.03C706.21,686.62,706.27,686.55,706.33,686.48z M418.73,796.12c0.32-0.22,0.63-0.44,0.95-0.67
			c0.35-0.14,0.72-0.24,1.04-0.41c6.62-3.55,13.25-7.11,19.86-10.68c2.46-1.33,4.89-2.72,7.23-4.03c0.17-3.18,1.33-4.83,3.61-5.32
			c1.86-0.4,3.7,0.49,4.62,2.23c0.9,1.72,0.55,3.99-0.82,5.22c-1.85,1.66-3.69,1.65-6.44-0.14c-10.25,5.4-20.56,10.83-30.87,16.26
			c0.05,0.15,0.1,0.3,0.15,0.45c6.03-2.3,12.25-3.77,18.63-4.5c6.5-0.75,12.95-0.56,19.21,1.26c11.09-9.8,18.77-12.83,31.99-18.54
			c-12.75,3.44-18.58,6.95-29.18,14.79c0.14-0.74,0.39-1.31,0.78-1.77c8.88-10.52,15.31-13.55,27.98-18.67
			c-0.83-2.03-1.63-3.99-2.48-6.07c-1.85,0.85-3.42,1.55-4.97,2.3c-6.38,3.08-12.75,6.19-19.13,9.25c-0.42,0.2-0.98,0.13-1.47,0.18
			c-0.06-0.17-0.12-0.35-0.18-0.52c0.42-0.35,0.8-0.8,1.28-1.04c6.7-3.41,13.41-6.8,20.11-10.19c1.09-0.55,2.19-1.1,3.37-1.7
			c-1.7-3.07-3.35-5.94-5.87-8.25c-13.92,8.37-22.92,11.96-39.11,13.59c-2.74,7.66-7.16,14.15-12.67,19.91
			c-2.12,2.22-4.47,4.23-6.71,6.33c-0.29,0.24-0.58,0.47-0.86,0.71l-0.09,0.02C418.67,796.13,418.73,796.12,418.73,796.12z
			 M847.62,606.41c-0.1-0.02-0.24-0.1-0.3-0.05c-2.41,1.7-4.82,3.39-7.2,5.13c-0.26,0.19-0.29,0.69-0.43,1.04
			c3.19-1.48,5.6-3.75,7.91-6.14l-0.02-0.08L847.62,606.41z M515.71,744.78c0.98-0.25,1.79-0.33,2.46-0.66
			c9.17-4.51,18.34-9.02,27.48-13.6c19.09-9.56,38.15-19.17,57.24-28.73c19.14-9.59,38.31-19.14,57.46-28.72
			c0.46-0.23,0.88-0.54,1.28-0.79c-0.62-2.06-3.88-6.46-5.74-7.65c-47.9,23.94-95.95,47.95-144.12,72.02
			C512.17,739.93,514.62,741.82,515.71,744.78z M692.95,653.9c0.77-0.24,1.65-0.41,2.44-0.78c2.73-1.32,5.41-2.72,8.12-4.07
			c16.14-8.08,32.28-16.18,48.43-24.23c19.02-9.48,38.06-18.91,57.08-28.36c2.12-1.05,4.21-2.15,6.43-3.29
			c-1.69-2.71-3.44-5.12-6.21-7.16c-40.14,19.95-80.31,39.9-120.27,59.76C688.63,647.59,689.93,650.14,692.95,653.9z M833.54,623.8
			c-3.08,1.45-6,2.82-8.93,4.19c0.06,0.09,0.12,0.19,0.18,0.28c-1.52,0.99-3.01,2.03-4.57,2.96c-8.09,4.8-16.05,9.83-24.32,14.31
			c-23.43,12.7-46.98,25.17-70.48,37.73c-1.53,0.82-2.42,2.14-2.7,3.83c-0.35,2.19,1.06,3.65,3.23,3.24c1.04-0.2,2.06-0.67,3-1.18
			c12.75-6.87,25.55-13.66,38.22-20.68c21.66-11.99,43.24-24.13,64.85-36.22c2.45-1.37,3.29-3.72,2.36-6.34
			C834.17,625.28,833.88,624.64,833.54,623.8z M694.73,694.28c1-4.38,0.76-8.58-0.04-12.75c-1.77-9.2-5.46-17.63-10.51-25.48
			c-2.68-4.16-5.81-7.94-9.85-10.88c-0.86-0.62-1.81-1.12-2.67-1.65c-2.27,1.21-4.36,2.33-6.53,3.49
			c8.43,5.62,13.49,13.74,17.58,22.55c4.08,8.79,6.92,17.9,5.85,27.99C690.73,696.41,692.72,695.35,694.73,694.28z M489.97,738.72
			c6.63,5.1,10.85,11.76,14.14,19.08c3.29,7.32,5.57,14.88,4.85,23.29c2.12-0.81,4.06-1.54,5.9-2.24c0.81-2.37,0.91-4.61,0.7-6.9
			c-0.72-7.55-3.22-14.53-6.7-21.19c-2.46-4.72-5.35-9.15-9.26-12.82c-1.09-1.02-2.33-1.88-3.49-2.82
			C494.01,736.35,492.1,737.47,489.97,738.72z M653.44,654.03c-0.01,0.13-0.03,0.25-0.04,0.38c4.16,1.65,7.17,4.73,9.65,8.19
			c2.79,3.89,5.48,7.94,7.6,12.22c4.47,9.03,7.16,18.51,5.41,28.88c1.72-0.94,3.4-1.87,5.02-2.75c1.25-3.24,1.42-6.51,1-9.82
			c-1.67-12.93-7.09-24.18-15.51-34.02c-2.22-2.59-4.88-4.73-8.28-5.77C656.64,652.27,655.04,653.15,653.44,654.03z M808.45,580
			c7.28,4.63,11.73,11.19,14.83,18.79c3.14,7.66,4.28,15.56,2.24,23.96c1.49-0.93,2.76-1.73,4.08-2.55c0.12-0.44,0.29-0.9,0.37-1.37
			c2.59-14.59-2-26.81-12.38-37.04c-1.38-1.36-3.23-2.25-4.66-3.22C811.2,579.13,809.87,579.55,808.45,580z M670.34,703.46
			c-0.54,0.25-0.78,0.35-1.01,0.47c-7.57,3.95-15.09,8-22.72,11.85c-20.76,10.46-41.52,20.94-62.39,31.19
			c-11.88,5.83-23.95,11.29-35.99,16.8c-8.01,3.67-16.11,7.13-24.17,10.7c-0.71,0.31-1.37,0.71-2.06,1.07
			c0.09,0.16,0.18,0.33,0.28,0.49c50.31-21.12,99.14-45.35,147.31-70.77C669.83,704.69,670.01,704.25,670.34,703.46z M476.5,748.39
			c1.8-0.43,3.18,0.17,4.35,1.18c1.06,0.91,2.17,1.85,2.95,2.99c2.02,2.93,4.04,5.89,5.74,9.01c2.56,4.67,4.39,9.67,5.01,14.99
			c0.34,2.93,0.72,5.96-1.41,8.51c1.25,1.23,2.94,0.91,4.85-0.6c0.88-2.42,0.76-4.98,0.41-7.48c-1.29-9.19-4.96-17.43-10.4-24.87
			c-2.1-2.88-4.44-5.61-8.01-6.91C478.58,745.89,476.81,746.13,476.5,748.39z M821.02,576.65c-0.03,0.07-0.06,0.13-0.09,0.2
			c1.11,0.85,2.32,1.58,3.3,2.56c2.15,2.15,4.47,4.15,5.48,7.26c0.57,1.77,1.85,3.29,2.63,5.01c3.22,7.15,5.16,14.55,3.9,22.49
			c-0.04,0.28-0.01,0.58-0.01,0.87c0.13,0.05,0.25,0.1,0.38,0.15c0.28-0.45,0.75-0.88,0.81-1.37c0.26-2.03,0.62-4.08,0.53-6.11
			c-0.33-7.56-2.72-14.49-6.71-20.89c-0.24-0.39-0.45-0.81-0.79-1.43c3.71-1.58,7.25-3.09,10.85-4.63
			c-0.87-1.94-2.29-3.39-3.94-4.64c-1.66-1.26-3.42-1.68-5.46-0.82c-2.58,1.09-5.21,2.04-7.76,3.03
			C823.04,577.74,822.03,577.2,821.02,576.65z"/>
	</g>
</g>
</svg>
