<?xml version="1.0" encoding="UTF-8"?>
<svg xmlns="http://www.w3.org/2000/svg" width="948" height="719" viewBox="0 0 948 719" role="img" aria-label="Vectorized .ink logo">
  <title>Vectorized .ink logo</title>
  <g id="white-details" fill="#ffffff" fill-rule="evenodd">
    <path d="M 209.00 333.00 L 209.00 484.00 L 219.00 486.00 L 234.00 496.00 L 243.00 510.00 L 245.00 522.00 L 537.00 522.00 L 539.00 511.00 L 546.00 499.00 L 559.00 488.00 L 574.00 484.00 L 574.00 333.00 L 563.00 331.00 L 554.00 326.00 L 543.00 314.00 L 537.00 296.00 L 245.00 296.00 L 236.00 316.00 L 224.00 327.00 Z
M 218.00 341.00 L 231.00 337.00 L 242.00 329.00 L 250.00 316.00 L 253.00 305.00 L 529.00 305.00 L 539.00 327.00 L 550.00 336.00 L 564.00 341.00 L 564.00 477.00 L 551.00 481.00 L 539.00 491.00 L 529.00 513.00 L 254.00 513.00 L 243.00 490.00 L 235.00 483.00 L 218.00 476.00 Z
M 225.00 346.00 L 225.00 471.00 L 237.00 476.00 L 249.00 486.00 L 257.00 499.00 L 258.00 505.00 L 524.00 506.00 L 533.00 487.00 L 541.00 479.00 L 557.00 471.00 L 557.00 346.00 L 543.00 340.00 L 531.00 328.00 L 524.00 312.00 L 258.00 312.00 L 251.00 329.00 L 238.00 341.00 Z
M 469.00 631.00 L 464.00 622.00 L 458.00 616.00 L 449.00 612.00 L 394.00 632.00 L 361.00 641.00 L 340.00 671.00 L 322.00 689.00 L 308.00 700.00 L 321.00 696.00 L 350.00 692.00 L 376.00 692.00 L 397.00 695.00 L 408.00 699.00 L 412.00 693.00 L 432.00 673.00 L 461.00 652.00 L 470.00 648.00 L 471.00 644.00 L 449.00 656.00 L 430.00 670.00 L 406.00 695.00 L 382.00 691.00 L 368.00 692.00 L 366.00 690.00 L 370.00 688.00 L 402.00 687.00 L 429.00 660.00 L 449.00 646.00 L 469.00 636.00 Z
M 433.00 358.00 L 448.00 356.00 L 453.00 354.00 L 457.00 355.00 L 457.00 375.00 L 458.00 376.00 L 458.00 390.00 L 457.00 391.00 L 457.00 413.00 L 458.00 414.00 L 457.00 416.00 L 458.00 418.00 L 457.00 419.00 L 478.00 398.00 L 477.00 396.00 L 473.00 395.00 L 472.00 392.00 L 474.00 390.00 L 499.00 390.00 L 500.00 391.00 L 500.00 394.00 L 498.00 396.00 L 492.00 397.00 L 487.00 400.00 L 471.00 416.00 L 497.00 448.00 L 506.00 451.00 L 506.00 455.00 L 505.00 456.00 L 476.00 456.00 L 475.00 455.00 L 475.00 451.00 L 479.00 449.00 L 460.00 426.00 L 457.00 427.00 L 457.00 444.00 L 459.00 449.00 L 466.00 451.00 L 466.00 455.00 L 465.00 456.00 L 433.00 456.00 L 432.00 455.00 L 432.00 452.00 L 434.00 450.00 L 438.00 450.00 L 442.00 447.00 L 442.00 368.00 L 440.00 364.00 L 432.00 362.00 Z
M 409.00 396.00 L 412.00 401.00 L 413.00 408.00 L 414.00 409.00 L 414.00 447.00 L 418.00 450.00 L 422.00 450.00 L 423.00 451.00 L 423.00 455.00 L 422.00 456.00 L 390.00 456.00 L 389.00 455.00 L 389.00 451.00 L 390.00 450.00 L 397.00 449.00 L 399.00 444.00 L 399.00 414.00 L 398.00 413.00 L 397.00 405.00 L 390.00 399.00 L 378.00 399.00 L 372.00 402.00 L 368.00 406.00 L 368.00 447.00 L 369.00 449.00 L 376.00 450.00 L 377.00 451.00 L 377.00 455.00 L 376.00 456.00 L 344.00 456.00 L 343.00 455.00 L 343.00 451.00 L 344.00 450.00 L 348.00 450.00 L 352.00 448.00 L 352.00 401.00 L 350.00 399.00 L 344.00 398.00 L 342.00 396.00 L 343.00 393.00 L 345.00 392.00 L 350.00 392.00 L 351.00 391.00 L 356.00 391.00 L 361.00 389.00 L 367.00 389.00 L 368.00 390.00 L 368.00 398.00 L 372.00 394.00 L 379.00 390.00 L 386.00 389.00 L 387.00 388.00 L 394.00 388.00 L 404.00 392.00 Z
M 277.00 205.00 L 275.00 212.00 L 271.00 218.00 L 258.00 230.00 L 248.00 235.00 L 243.00 236.00 L 232.00 241.00 L 226.00 242.00 L 217.00 246.00 L 193.00 253.00 L 181.00 260.00 L 176.00 265.00 L 170.00 276.00 L 170.00 279.00 L 168.00 284.00 L 168.00 357.00 L 168.00 347.00 L 169.00 346.00 L 169.00 341.00 L 170.00 340.00 L 170.00 335.00 L 171.00 334.00 L 173.00 318.00 L 174.00 317.00 L 174.00 314.00 L 176.00 310.00 L 178.00 301.00 L 184.00 289.00 L 200.00 272.00 L 207.00 267.00 L 221.00 260.00 L 223.00 260.00 L 228.00 257.00 L 230.00 257.00 L 245.00 250.00 L 260.00 240.00 L 267.00 233.00 L 274.00 221.00 L 276.00 215.00 L 276.00 208.00 Z
M 916.00 470.00 L 914.00 468.00 L 909.00 468.00 L 903.00 473.00 L 906.00 480.00 L 904.00 485.00 L 899.00 489.00 L 837.00 520.00 L 835.00 522.00 L 795.00 542.00 L 793.00 542.00 L 789.00 539.00 L 785.00 539.00 L 784.00 538.00 L 783.00 539.00 L 779.00 539.00 L 775.00 541.00 L 772.00 544.00 L 770.00 548.00 L 770.00 557.00 L 772.00 561.00 L 774.00 563.00 L 779.00 565.00 L 785.00 565.00 L 786.00 564.00 L 788.00 564.00 L 794.00 559.00 L 796.00 555.00 L 796.00 553.00 L 798.00 551.00 L 800.00 551.00 L 807.00 547.00 L 809.00 547.00 L 811.00 545.00 L 911.00 495.00 L 916.00 490.00 L 919.00 482.00 L 919.00 477.00 Z
M 321.00 388.00 L 323.00 390.00 L 323.00 447.00 L 324.00 448.00 L 324.00 449.00 L 325.00 449.00 L 326.00 450.00 L 331.00 450.00 L 332.00 451.00 L 332.00 455.00 L 331.00 456.00 L 298.00 456.00 L 297.00 455.00 L 297.00 452.00 L 299.00 450.00 L 303.00 450.00 L 304.00 449.00 L 305.00 449.00 L 307.00 447.00 L 307.00 402.00 L 305.00 399.00 L 302.00 399.00 L 301.00 398.00 L 298.00 398.00 L 297.00 397.00 L 297.00 394.00 L 299.00 392.00 L 305.00 392.00 L 306.00 391.00 L 311.00 391.00 L 312.00 390.00 L 315.00 390.00 L 316.00 389.00 L 320.00 389.00 Z
M 677.00 491.00 L 682.00 491.00 L 683.00 492.00 L 685.00 492.00 L 686.00 493.00 L 687.00 493.00 L 688.00 494.00 L 693.00 496.00 L 695.00 498.00 L 696.00 498.00 L 709.00 511.00 L 709.00 512.00 L 712.00 515.00 L 713.00 518.00 L 715.00 520.00 L 715.00 522.00 L 718.00 527.00 L 718.00 529.00 L 719.00 530.00 L 719.00 533.00 L 720.00 534.00 L 720.00 536.00 L 721.00 537.00 L 721.00 542.00 L 722.00 543.00 L 722.00 557.00 L 721.00 558.00 L 721.00 562.00 L 720.00 563.00 L 720.00 566.00 L 718.00 569.00 L 718.00 571.00 L 717.00 572.00 L 717.00 573.00 L 715.00 575.00 L 715.00 576.00 L 711.00 580.00 L 712.00 579.00 L 715.00 578.00 L 717.00 576.00 L 718.00 576.00 L 724.00 570.00 L 724.00 569.00 L 726.00 567.00 L 726.00 565.00 L 727.00 564.00 L 727.00 563.00 L 728.00 562.00 L 728.00 560.00 L 729.00 559.00 L 729.00 555.00 L 730.00 554.00 L 730.00 538.00 L 729.00 537.00 L 729.00 533.00 L 728.00 532.00 L 728.00 529.00 L 727.00 528.00 L 727.00 525.00 L 726.00 524.00 L 726.00 523.00 L 725.00 522.00 L 725.00 520.00 L 724.00 519.00 L 722.00 514.00 L 720.00 512.00 L 719.00 509.00 L 716.00 506.00 L 716.00 505.00 L 707.00 496.00 L 706.00 496.00 L 704.00 494.00 L 703.00 494.00 L 698.00 491.00 L 696.00 491.00 L 695.00 490.00 L 693.00 490.00 L 692.00 489.00 L 686.00 489.00 L 685.00 490.00 L 682.00 490.00 L 681.00 491.00 Z
M 901.00 420.00 L 890.00 411.00 L 883.00 408.00 L 877.00 408.00 L 879.00 408.00 L 889.00 414.00 L 902.00 428.00 L 910.00 445.00 L 911.00 454.00 L 821.00 504.00 L 779.00 525.00 L 777.00 525.00 L 758.00 535.00 L 756.00 535.00 L 752.00 538.00 L 751.00 541.00 L 756.00 538.00 L 770.00 533.00 L 789.00 523.00 L 791.00 523.00 L 842.00 497.00 L 851.00 491.00 L 889.00 471.00 L 915.00 455.00 L 912.00 439.00 L 908.00 430.00 Z
M 268.00 175.00 L 276.00 182.00 L 291.00 186.00 L 306.00 188.00 L 307.00 189.00 L 313.00 189.00 L 314.00 190.00 L 320.00 190.00 L 321.00 191.00 L 341.00 192.00 L 342.00 193.00 L 356.00 193.00 L 357.00 194.00 L 416.00 194.00 L 417.00 193.00 L 443.00 192.00 L 444.00 191.00 L 452.00 191.00 L 453.00 190.00 L 472.00 188.00 L 503.00 180.00 L 491.00 183.00 L 486.00 183.00 L 485.00 184.00 L 480.00 184.00 L 473.00 186.00 L 466.00 186.00 L 465.00 187.00 L 456.00 187.00 L 455.00 188.00 L 431.00 189.00 L 430.00 190.00 L 405.00 190.00 L 404.00 191.00 L 390.00 190.00 L 389.00 191.00 L 385.00 191.00 L 384.00 190.00 L 343.00 189.00 L 342.00 188.00 L 334.00 188.00 L 333.00 187.00 L 315.00 186.00 L 314.00 185.00 L 308.00 185.00 L 297.00 182.00 L 287.00 181.00 Z
M 663.00 500.00 L 664.00 500.00 L 665.00 501.00 L 668.00 501.00 L 669.00 502.00 L 671.00 502.00 L 672.00 503.00 L 673.00 503.00 L 674.00 504.00 L 675.00 504.00 L 676.00 505.00 L 679.00 506.00 L 681.00 508.00 L 682.00 508.00 L 691.00 517.00 L 691.00 518.00 L 694.00 521.00 L 694.00 522.00 L 696.00 524.00 L 696.00 525.00 L 697.00 526.00 L 697.00 527.00 L 698.00 528.00 L 698.00 529.00 L 701.00 534.00 L 701.00 536.00 L 702.00 537.00 L 702.00 540.00 L 703.00 541.00 L 703.00 546.00 L 704.00 547.00 L 704.00 561.00 L 703.00 562.00 L 703.00 567.00 L 702.00 568.00 L 702.00 570.00 L 701.00 571.00 L 701.00 572.00 L 700.00 573.00 L 700.00 574.00 L 699.00 575.00 L 699.00 576.00 L 698.00 577.00 L 697.00 580.00 L 693.00 584.00 L 694.00 583.00 L 695.00 583.00 L 696.00 582.00 L 699.00 581.00 L 705.00 575.00 L 705.00 574.00 L 707.00 572.00 L 707.00 571.00 L 709.00 568.00 L 709.00 566.00 L 710.00 565.00 L 710.00 563.00 L 711.00 562.00 L 711.00 556.00 L 712.00 555.00 L 712.00 547.00 L 711.00 546.00 L 711.00 540.00 L 710.00 539.00 L 710.00 536.00 L 709.00 535.00 L 709.00 533.00 L 708.00 532.00 L 708.00 530.00 L 707.00 529.00 L 707.00 528.00 L 706.00 527.00 L 706.00 526.00 L 705.00 525.00 L 705.00 524.00 L 704.00 523.00 L 703.00 520.00 L 701.00 518.00 L 701.00 517.00 L 699.00 515.00 L 699.00 514.00 L 691.00 506.00 L 690.00 506.00 L 688.00 504.00 L 685.00 503.00 L 683.00 501.00 L 681.00 501.00 L 680.00 500.00 L 677.00 500.00 L 676.00 499.00 L 666.00 499.00 L 665.00 500.00 Z
M 392.00 662.00 L 392.00 665.00 L 391.00 666.00 L 391.00 667.00 L 387.00 671.00 L 386.00 671.00 L 385.00 672.00 L 377.00 672.00 L 376.00 671.00 L 373.00 671.00 L 372.00 672.00 L 371.00 672.00 L 370.00 673.00 L 369.00 673.00 L 368.00 674.00 L 367.00 674.00 L 366.00 675.00 L 365.00 675.00 L 364.00 676.00 L 363.00 676.00 L 362.00 677.00 L 361.00 677.00 L 360.00 678.00 L 359.00 678.00 L 358.00 679.00 L 357.00 679.00 L 356.00 680.00 L 355.00 680.00 L 352.00 682.00 L 350.00 682.00 L 349.00 683.00 L 348.00 683.00 L 347.00 684.00 L 346.00 684.00 L 345.00 685.00 L 344.00 685.00 L 343.00 686.00 L 342.00 686.00 L 341.00 687.00 L 340.00 687.00 L 339.00 688.00 L 338.00 688.00 L 337.00 689.00 L 336.00 689.00 L 333.00 691.00 L 331.00 691.00 L 330.00 692.00 L 329.00 692.00 L 328.00 693.00 L 327.00 693.00 L 326.00 694.00 L 325.00 694.00 L 322.00 696.00 L 320.00 696.00 L 317.00 694.00 L 319.00 691.00 L 320.00 691.00 L 321.00 690.00 L 323.00 690.00 L 324.00 689.00 L 325.00 689.00 L 326.00 688.00 L 327.00 688.00 L 328.00 687.00 L 329.00 687.00 L 330.00 686.00 L 331.00 686.00 L 332.00 685.00 L 333.00 685.00 L 334.00 684.00 L 335.00 684.00 L 336.00 683.00 L 337.00 683.00 L 340.00 681.00 L 342.00 681.00 L 343.00 680.00 L 344.00 680.00 L 345.00 679.00 L 346.00 679.00 L 348.00 677.00 L 350.00 677.00 L 351.00 676.00 L 352.00 676.00 L 353.00 675.00 L 354.00 675.00 L 355.00 674.00 L 356.00 674.00 L 357.00 673.00 L 358.00 673.00 L 359.00 672.00 L 360.00 672.00 L 361.00 671.00 L 362.00 671.00 L 363.00 670.00 L 364.00 670.00 L 365.00 669.00 L 366.00 669.00 L 367.00 668.00 L 368.00 668.00 L 369.00 667.00 L 370.00 667.00 L 371.00 666.00 L 372.00 666.00 L 372.00 661.00 L 376.00 657.00 L 377.00 657.00 L 378.00 656.00 L 381.00 656.00 L 382.00 655.00 L 383.00 655.00 L 384.00 656.00 L 386.00 656.00 L 387.00 657.00 L 388.00 657.00 L 391.00 660.00 L 391.00 661.00 Z
M 457.00 595.00 L 460.00 595.00 L 461.00 596.00 L 462.00 596.00 L 463.00 597.00 L 464.00 597.00 L 465.00 598.00 L 466.00 598.00 L 468.00 600.00 L 469.00 600.00 L 479.00 610.00 L 479.00 611.00 L 481.00 613.00 L 481.00 614.00 L 483.00 616.00 L 483.00 617.00 L 485.00 620.00 L 485.00 622.00 L 487.00 625.00 L 487.00 627.00 L 488.00 628.00 L 488.00 630.00 L 489.00 631.00 L 489.00 634.00 L 490.00 635.00 L 490.00 653.00 L 489.00 654.00 L 489.00 657.00 L 487.00 660.00 L 487.00 662.00 L 484.00 665.00 L 485.00 664.00 L 486.00 664.00 L 489.00 661.00 L 490.00 661.00 L 492.00 659.00 L 492.00 658.00 L 494.00 655.00 L 494.00 653.00 L 495.00 652.00 L 495.00 649.00 L 496.00 648.00 L 496.00 634.00 L 495.00 633.00 L 495.00 629.00 L 494.00 628.00 L 494.00 626.00 L 493.00 625.00 L 493.00 623.00 L 492.00 622.00 L 492.00 620.00 L 491.00 619.00 L 491.00 618.00 L 490.00 617.00 L 490.00 616.00 L 489.00 615.00 L 489.00 614.00 L 488.00 613.00 L 488.00 612.00 L 486.00 610.00 L 486.00 609.00 L 482.00 605.00 L 482.00 604.00 L 480.00 602.00 L 479.00 602.00 L 475.00 598.00 L 474.00 598.00 L 472.00 596.00 L 470.00 596.00 L 469.00 595.00 L 467.00 595.00 L 466.00 594.00 L 460.00 594.00 L 459.00 595.00 Z
M 480.00 587.00 L 480.00 588.00 L 481.00 588.00 L 482.00 589.00 L 483.00 589.00 L 484.00 590.00 L 485.00 590.00 L 487.00 592.00 L 488.00 592.00 L 499.00 603.00 L 499.00 604.00 L 500.00 605.00 L 500.00 606.00 L 502.00 608.00 L 502.00 609.00 L 503.00 610.00 L 503.00 611.00 L 504.00 612.00 L 504.00 613.00 L 505.00 614.00 L 505.00 616.00 L 506.00 617.00 L 506.00 618.00 L 507.00 619.00 L 507.00 622.00 L 508.00 623.00 L 508.00 627.00 L 509.00 628.00 L 509.00 646.00 L 508.00 647.00 L 508.00 650.00 L 507.00 651.00 L 507.00 652.00 L 506.00 653.00 L 507.00 653.00 L 509.00 651.00 L 510.00 651.00 L 510.00 650.00 L 512.00 648.00 L 512.00 647.00 L 513.00 646.00 L 513.00 644.00 L 514.00 643.00 L 514.00 638.00 L 515.00 637.00 L 515.00 627.00 L 514.00 626.00 L 514.00 621.00 L 513.00 620.00 L 513.00 617.00 L 512.00 616.00 L 512.00 615.00 L 511.00 614.00 L 511.00 612.00 L 510.00 611.00 L 510.00 610.00 L 509.00 609.00 L 509.00 608.00 L 508.00 607.00 L 508.00 606.00 L 507.00 605.00 L 507.00 604.00 L 506.00 603.00 L 506.00 602.00 L 502.00 598.00 L 502.00 597.00 L 496.00 591.00 L 495.00 591.00 L 493.00 589.00 L 492.00 589.00 L 491.00 588.00 L 490.00 588.00 L 489.00 587.00 L 486.00 587.00 L 485.00 586.00 L 484.00 586.00 L 483.00 587.00 Z
M 269.00 436.00 L 276.00 436.00 L 277.00 437.00 L 278.00 437.00 L 282.00 441.00 L 282.00 442.00 L 283.00 443.00 L 283.00 450.00 L 282.00 451.00 L 282.00 452.00 L 279.00 455.00 L 278.00 455.00 L 277.00 456.00 L 276.00 456.00 L 275.00 457.00 L 269.00 457.00 L 268.00 456.00 L 267.00 456.00 L 263.00 452.00 L 263.00 451.00 L 262.00 450.00 L 262.00 443.00 L 263.00 442.00 L 263.00 441.00 L 267.00 437.00 L 268.00 437.00 Z
M 313.00 357.00 L 316.00 357.00 L 317.00 358.00 L 319.00 358.00 L 323.00 362.00 L 323.00 363.00 L 324.00 364.00 L 324.00 371.00 L 323.00 372.00 L 323.00 373.00 L 320.00 376.00 L 319.00 376.00 L 318.00 377.00 L 316.00 377.00 L 315.00 378.00 L 313.00 378.00 L 312.00 377.00 L 311.00 377.00 L 310.00 376.00 L 309.00 376.00 L 306.00 373.00 L 306.00 372.00 L 305.00 371.00 L 305.00 369.00 L 304.00 368.00 L 304.00 366.00 L 305.00 365.00 L 305.00 363.00 L 310.00 358.00 L 312.00 358.00 Z
M 373.00 639.00 L 373.00 641.00 L 372.00 642.00 L 371.00 642.00 L 370.00 643.00 L 368.00 643.00 L 367.00 644.00 L 366.00 644.00 L 365.00 645.00 L 364.00 645.00 L 363.00 646.00 L 363.00 647.00 L 362.00 648.00 L 361.00 648.00 L 360.00 647.00 L 360.00 645.00 L 361.00 644.00 L 361.00 642.00 L 362.00 641.00 L 364.00 641.00 L 365.00 640.00 L 368.00 640.00 L 369.00 639.00 L 371.00 639.00 L 372.00 638.00 Z
M 416.00 192.00 L 417.00 191.00 L 429.00 191.00 L 430.00 192.00 L 429.00 193.00 L 417.00 193.00 Z
M 447.00 190.00 L 449.00 188.00 L 456.00 188.00 L 457.00 189.00 L 456.00 190.00 L 452.00 190.00 L 451.00 191.00 L 448.00 191.00 Z"/>
  </g>
  <g id="black-artwork" fill="#000000" fill-rule="evenodd">
    <path d="M 158.00 264.00 L 152.00 282.00 L 152.00 544.00 L 158.00 561.00 L 175.00 578.00 L 207.00 587.00 L 448.00 587.00 L 632.00 506.00 L 630.00 274.00 L 622.00 257.00 L 607.00 243.00 L 539.00 220.00 L 524.00 209.00 L 521.00 190.00 L 539.00 172.00 L 539.00 165.00 L 532.00 156.00 L 525.00 153.00 L 497.00 163.00 L 453.00 170.00 L 375.00 173.00 L 301.00 166.00 L 259.00 153.00 L 247.00 161.00 L 245.00 172.00 L 263.00 190.00 L 260.00 209.00 L 248.00 219.00 L 178.00 243.00 Z
M 208.00 333.00 L 224.00 326.00 L 235.00 316.00 L 245.00 295.00 L 537.00 295.00 L 546.00 317.00 L 557.00 327.00 L 575.00 333.00 L 575.00 484.00 L 559.00 489.00 L 547.00 499.00 L 537.00 523.00 L 245.00 523.00 L 242.00 510.00 L 232.00 495.00 L 219.00 487.00 L 208.00 484.00 Z
M 219.00 341.00 L 219.00 476.00 L 235.00 482.00 L 244.00 490.00 L 250.00 499.00 L 254.00 512.00 L 529.00 512.00 L 532.00 501.00 L 538.00 491.00 L 551.00 480.00 L 563.00 477.00 L 563.00 341.00 L 550.00 337.00 L 538.00 327.00 L 529.00 306.00 L 253.00 306.00 L 251.00 316.00 L 243.00 329.00 L 233.00 337.00 Z
M 224.00 346.00 L 238.00 340.00 L 250.00 329.00 L 258.00 311.00 L 525.00 311.00 L 532.00 328.00 L 543.00 339.00 L 558.00 346.00 L 558.00 472.00 L 547.00 476.00 L 534.00 487.00 L 524.00 507.00 L 259.00 507.00 L 247.00 485.00 L 237.00 477.00 L 224.00 472.00 Z
M 933.00 425.00 L 916.00 404.00 L 902.00 399.00 L 885.00 400.00 L 807.00 429.00 L 698.00 476.00 L 649.00 505.00 L 445.00 595.00 L 433.00 612.00 L 357.00 636.00 L 338.00 665.00 L 303.00 702.00 L 309.00 705.00 L 332.00 700.00 L 363.00 699.00 L 408.00 706.00 L 456.00 669.00 L 467.00 673.00 L 486.00 670.00 L 680.00 590.00 L 716.00 585.00 L 763.00 564.00 L 776.00 572.00 L 790.00 571.00 L 804.00 557.00 L 919.00 497.00 L 925.00 484.00 L 924.00 472.00 L 935.00 448.00 Z
M 250.00 50.00 L 250.00 132.00 L 256.00 140.00 L 273.00 148.00 L 297.00 154.00 L 342.00 160.00 L 428.00 161.00 L 460.00 158.00 L 500.00 151.00 L 523.00 143.00 L 528.00 140.00 L 534.00 132.00 L 534.00 50.00 L 522.00 57.00 L 499.00 64.00 L 461.00 70.00 L 422.00 73.00 L 359.00 73.00 L 312.00 69.00 L 269.00 60.00 Z
M 12.00 640.00 L 16.00 645.00 L 34.00 651.00 L 57.00 654.00 L 99.00 655.00 L 216.00 647.00 L 238.00 642.00 L 246.00 638.00 L 250.00 632.00 L 245.00 626.00 L 235.00 621.00 L 220.00 617.00 L 188.00 612.00 L 161.00 610.00 L 146.00 607.00 L 142.00 604.00 L 142.00 601.00 L 151.00 596.00 L 154.00 590.00 L 150.00 586.00 L 142.00 583.00 L 122.00 580.00 L 91.00 580.00 L 68.00 583.00 L 50.00 589.00 L 45.00 594.00 L 46.00 599.00 L 54.00 604.00 L 68.00 607.00 L 72.00 609.00 L 74.00 613.00 L 62.00 619.00 L 49.00 621.00 L 25.00 628.00 L 17.00 632.00 L 13.00 636.00 Z
M 255.00 40.00 L 260.00 45.00 L 266.00 48.00 L 292.00 55.00 L 339.00 61.00 L 391.00 63.00 L 392.00 62.00 L 442.00 61.00 L 492.00 55.00 L 518.00 48.00 L 527.00 43.00 L 530.00 37.00 L 527.00 32.00 L 516.00 26.00 L 492.00 20.00 L 444.00 14.00 L 382.00 12.00 L 381.00 13.00 L 356.00 13.00 L 355.00 14.00 L 329.00 15.00 L 282.00 22.00 L 260.00 30.00 L 255.00 35.00 Z
M 471.00 635.00 L 449.00 647.00 L 429.00 661.00 L 403.00 688.00 L 367.00 690.00 L 392.00 691.00 L 406.00 694.00 L 435.00 665.00 L 461.00 648.00 L 472.00 644.00 L 470.00 649.00 L 458.00 655.00 L 432.00 674.00 L 408.00 700.00 L 397.00 696.00 L 375.00 693.00 L 341.00 694.00 L 310.00 701.00 L 307.00 700.00 L 318.00 691.00 L 318.00 694.00 L 322.00 695.00 L 373.00 670.00 L 385.00 671.00 L 390.00 667.00 L 391.00 663.00 L 388.00 658.00 L 382.00 656.00 L 374.00 660.00 L 372.00 667.00 L 319.00 692.00 L 318.00 691.00 L 344.00 665.00 L 361.00 640.00 L 394.00 631.00 L 449.00 611.00 L 458.00 615.00 L 465.00 622.00 Z
M 276.00 207.00 L 277.00 208.00 L 277.00 215.00 L 275.00 221.00 L 271.00 229.00 L 260.00 241.00 L 247.00 250.00 L 235.00 256.00 L 228.00 258.00 L 219.00 263.00 L 217.00 263.00 L 204.00 270.00 L 188.00 285.00 L 180.00 299.00 L 175.00 314.00 L 175.00 318.00 L 174.00 319.00 L 174.00 323.00 L 172.00 329.00 L 171.00 341.00 L 170.00 342.00 L 170.00 347.00 L 169.00 348.00 L 169.00 358.00 L 168.00 359.00 L 167.00 358.00 L 167.00 284.00 L 168.00 283.00 L 169.00 276.00 L 175.00 265.00 L 181.00 259.00 L 193.00 252.00 L 205.00 248.00 L 208.00 248.00 L 211.00 246.00 L 217.00 245.00 L 220.00 243.00 L 240.00 237.00 L 258.00 229.00 L 270.00 218.00 Z
M 917.00 470.00 L 920.00 477.00 L 920.00 482.00 L 917.00 490.00 L 911.00 496.00 L 811.00 546.00 L 809.00 548.00 L 807.00 548.00 L 803.00 550.00 L 801.00 552.00 L 798.00 552.00 L 795.00 559.00 L 788.00 565.00 L 786.00 565.00 L 785.00 566.00 L 779.00 566.00 L 774.00 564.00 L 771.00 561.00 L 769.00 557.00 L 768.00 552.00 L 771.00 544.00 L 775.00 540.00 L 779.00 538.00 L 785.00 537.00 L 786.00 538.00 L 789.00 538.00 L 793.00 541.00 L 795.00 541.00 L 819.00 529.00 L 821.00 527.00 L 823.00 527.00 L 829.00 523.00 L 831.00 523.00 L 837.00 519.00 L 868.00 504.00 L 870.00 502.00 L 899.00 488.00 L 902.00 486.00 L 904.00 483.00 L 905.00 479.00 L 902.00 473.00 L 907.00 468.00 L 912.00 466.00 Z
M 433.00 359.00 L 434.00 362.00 L 440.00 363.00 L 443.00 368.00 L 443.00 447.00 L 438.00 451.00 L 434.00 451.00 L 433.00 455.00 L 465.00 455.00 L 465.00 452.00 L 459.00 450.00 L 456.00 446.00 L 456.00 427.00 L 459.00 425.00 L 464.00 429.00 L 480.00 449.00 L 478.00 451.00 L 476.00 451.00 L 476.00 455.00 L 505.00 455.00 L 505.00 451.00 L 497.00 449.00 L 470.00 416.00 L 487.00 399.00 L 492.00 396.00 L 498.00 395.00 L 499.00 391.00 L 474.00 391.00 L 474.00 395.00 L 477.00 395.00 L 479.00 398.00 L 458.00 419.00 L 456.00 417.00 L 456.00 386.00 L 457.00 385.00 L 456.00 384.00 L 457.00 382.00 L 456.00 378.00 L 456.00 355.00 Z
M 408.00 396.00 L 404.00 393.00 L 394.00 389.00 L 387.00 389.00 L 386.00 390.00 L 379.00 391.00 L 372.00 395.00 L 368.00 399.00 L 367.00 398.00 L 367.00 390.00 L 361.00 390.00 L 356.00 392.00 L 343.00 394.00 L 344.00 397.00 L 350.00 398.00 L 353.00 401.00 L 353.00 448.00 L 349.00 451.00 L 344.00 451.00 L 344.00 455.00 L 376.00 455.00 L 376.00 451.00 L 372.00 451.00 L 369.00 450.00 L 367.00 448.00 L 367.00 406.00 L 372.00 401.00 L 378.00 398.00 L 382.00 398.00 L 383.00 397.00 L 392.00 399.00 L 398.00 405.00 L 399.00 412.00 L 400.00 413.00 L 400.00 445.00 L 399.00 448.00 L 397.00 450.00 L 391.00 451.00 L 390.00 452.00 L 390.00 455.00 L 422.00 455.00 L 422.00 451.00 L 418.00 451.00 L 413.00 447.00 L 413.00 409.00 L 412.00 408.00 L 411.00 401.00 Z
M 906.00 425.00 L 914.00 442.00 L 916.00 451.00 L 915.00 456.00 L 891.00 471.00 L 882.00 475.00 L 875.00 480.00 L 866.00 484.00 L 859.00 489.00 L 851.00 492.00 L 829.00 505.00 L 823.00 507.00 L 819.00 510.00 L 770.00 534.00 L 751.00 542.00 L 750.00 541.00 L 751.00 538.00 L 756.00 534.00 L 758.00 534.00 L 819.00 504.00 L 910.00 454.00 L 910.00 449.00 L 908.00 442.00 L 901.00 428.00 L 889.00 415.00 L 883.00 411.00 L 884.00 410.00 L 882.00 411.00 L 876.00 408.00 L 877.00 407.00 L 883.00 407.00 L 892.00 411.00 Z
M 268.00 176.00 L 271.00 175.00 L 287.00 180.00 L 292.00 180.00 L 308.00 184.00 L 342.00 187.00 L 343.00 188.00 L 360.00 188.00 L 361.00 189.00 L 430.00 189.00 L 431.00 188.00 L 443.00 188.00 L 444.00 187.00 L 455.00 187.00 L 456.00 186.00 L 473.00 185.00 L 474.00 184.00 L 485.00 183.00 L 497.00 180.00 L 501.00 181.00 L 494.00 184.00 L 482.00 187.00 L 461.00 190.00 L 460.00 191.00 L 444.00 192.00 L 443.00 193.00 L 418.00 194.00 L 417.00 195.00 L 356.00 195.00 L 355.00 194.00 L 341.00 194.00 L 340.00 193.00 L 321.00 192.00 L 320.00 191.00 L 307.00 190.00 L 306.00 189.00 L 301.00 189.00 L 300.00 188.00 L 286.00 186.00 L 276.00 183.00 Z
M 141.00 675.00 L 141.00 679.00 L 143.00 681.00 L 144.00 681.00 L 145.00 682.00 L 146.00 682.00 L 147.00 683.00 L 149.00 683.00 L 150.00 684.00 L 152.00 684.00 L 153.00 685.00 L 158.00 685.00 L 159.00 686.00 L 168.00 686.00 L 169.00 687.00 L 179.00 687.00 L 180.00 686.00 L 192.00 686.00 L 193.00 685.00 L 198.00 685.00 L 199.00 684.00 L 202.00 684.00 L 203.00 683.00 L 205.00 683.00 L 206.00 682.00 L 208.00 682.00 L 212.00 678.00 L 212.00 675.00 L 211.00 674.00 L 211.00 673.00 L 210.00 672.00 L 209.00 672.00 L 208.00 671.00 L 207.00 671.00 L 206.00 670.00 L 205.00 670.00 L 204.00 669.00 L 202.00 669.00 L 201.00 668.00 L 198.00 668.00 L 197.00 667.00 L 192.00 667.00 L 191.00 666.00 L 183.00 666.00 L 182.00 665.00 L 172.00 665.00 L 171.00 666.00 L 162.00 666.00 L 161.00 667.00 L 156.00 667.00 L 155.00 668.00 L 153.00 668.00 L 152.00 669.00 L 149.00 669.00 L 148.00 670.00 L 147.00 670.00 L 145.00 672.00 L 144.00 672.00 Z
M 677.00 490.00 L 680.00 490.00 L 681.00 489.00 L 685.00 489.00 L 686.00 488.00 L 692.00 488.00 L 693.00 489.00 L 696.00 489.00 L 697.00 490.00 L 698.00 490.00 L 699.00 491.00 L 704.00 493.00 L 706.00 495.00 L 707.00 495.00 L 717.00 505.00 L 717.00 506.00 L 720.00 509.00 L 721.00 512.00 L 723.00 514.00 L 723.00 515.00 L 726.00 520.00 L 726.00 522.00 L 728.00 525.00 L 728.00 528.00 L 729.00 529.00 L 729.00 531.00 L 730.00 532.00 L 730.00 537.00 L 731.00 538.00 L 731.00 555.00 L 730.00 556.00 L 730.00 559.00 L 729.00 560.00 L 729.00 562.00 L 728.00 563.00 L 728.00 564.00 L 727.00 565.00 L 727.00 567.00 L 725.00 569.00 L 725.00 570.00 L 722.00 573.00 L 722.00 574.00 L 721.00 575.00 L 720.00 575.00 L 717.00 578.00 L 716.00 578.00 L 713.00 580.00 L 712.00 580.00 L 711.00 579.00 L 714.00 576.00 L 714.00 575.00 L 716.00 573.00 L 716.00 572.00 L 717.00 571.00 L 717.00 569.00 L 719.00 566.00 L 719.00 563.00 L 720.00 562.00 L 720.00 557.00 L 721.00 556.00 L 721.00 543.00 L 720.00 542.00 L 720.00 538.00 L 719.00 537.00 L 719.00 534.00 L 718.00 533.00 L 718.00 530.00 L 717.00 529.00 L 717.00 527.00 L 716.00 526.00 L 716.00 525.00 L 715.00 524.00 L 715.00 523.00 L 714.00 522.00 L 714.00 521.00 L 713.00 520.00 L 711.00 515.00 L 708.00 512.00 L 708.00 511.00 L 696.00 499.00 L 695.00 499.00 L 693.00 497.00 L 692.00 497.00 L 685.00 493.00 L 683.00 493.00 L 682.00 492.00 L 677.00 492.00 L 676.00 491.00 Z
M 321.00 389.00 L 320.00 390.00 L 316.00 390.00 L 315.00 391.00 L 312.00 391.00 L 311.00 392.00 L 306.00 392.00 L 305.00 393.00 L 299.00 393.00 L 298.00 394.00 L 298.00 397.00 L 301.00 397.00 L 302.00 398.00 L 305.00 398.00 L 307.00 400.00 L 307.00 401.00 L 308.00 402.00 L 308.00 447.00 L 305.00 450.00 L 304.00 450.00 L 303.00 451.00 L 299.00 451.00 L 298.00 452.00 L 298.00 455.00 L 331.00 455.00 L 331.00 451.00 L 326.00 451.00 L 325.00 450.00 L 324.00 450.00 L 322.00 447.00 L 322.00 390.00 Z
M 663.00 499.00 L 665.00 499.00 L 666.00 498.00 L 677.00 498.00 L 678.00 499.00 L 680.00 499.00 L 681.00 500.00 L 683.00 500.00 L 684.00 501.00 L 685.00 501.00 L 687.00 503.00 L 688.00 503.00 L 690.00 505.00 L 691.00 505.00 L 700.00 514.00 L 700.00 515.00 L 704.00 520.00 L 704.00 521.00 L 705.00 522.00 L 705.00 523.00 L 706.00 524.00 L 706.00 525.00 L 709.00 530.00 L 709.00 532.00 L 710.00 533.00 L 710.00 535.00 L 711.00 536.00 L 711.00 539.00 L 712.00 540.00 L 712.00 546.00 L 713.00 547.00 L 713.00 556.00 L 712.00 557.00 L 712.00 562.00 L 711.00 563.00 L 711.00 565.00 L 710.00 566.00 L 710.00 568.00 L 709.00 569.00 L 708.00 572.00 L 706.00 574.00 L 706.00 575.00 L 699.00 582.00 L 698.00 582.00 L 695.00 584.00 L 694.00 584.00 L 693.00 583.00 L 697.00 578.00 L 697.00 577.00 L 698.00 576.00 L 698.00 575.00 L 701.00 570.00 L 701.00 567.00 L 702.00 566.00 L 702.00 562.00 L 703.00 561.00 L 703.00 547.00 L 702.00 546.00 L 702.00 541.00 L 701.00 540.00 L 701.00 537.00 L 700.00 536.00 L 700.00 534.00 L 699.00 533.00 L 699.00 532.00 L 698.00 531.00 L 698.00 530.00 L 697.00 529.00 L 697.00 528.00 L 696.00 527.00 L 695.00 524.00 L 693.00 522.00 L 693.00 521.00 L 690.00 518.00 L 690.00 517.00 L 682.00 509.00 L 681.00 509.00 L 679.00 507.00 L 678.00 507.00 L 673.00 504.00 L 671.00 504.00 L 668.00 502.00 L 663.00 502.00 L 662.00 501.00 L 662.00 500.00 Z
M 457.00 594.00 L 459.00 594.00 L 460.00 593.00 L 466.00 593.00 L 467.00 594.00 L 469.00 594.00 L 470.00 595.00 L 472.00 595.00 L 473.00 596.00 L 474.00 596.00 L 478.00 600.00 L 479.00 600.00 L 484.00 605.00 L 484.00 606.00 L 487.00 609.00 L 487.00 610.00 L 489.00 612.00 L 489.00 613.00 L 490.00 614.00 L 490.00 615.00 L 491.00 616.00 L 491.00 617.00 L 493.00 620.00 L 493.00 622.00 L 494.00 623.00 L 494.00 625.00 L 495.00 626.00 L 495.00 628.00 L 496.00 629.00 L 496.00 633.00 L 497.00 634.00 L 497.00 648.00 L 496.00 649.00 L 496.00 652.00 L 495.00 653.00 L 495.00 655.00 L 494.00 656.00 L 494.00 657.00 L 493.00 658.00 L 493.00 659.00 L 489.00 663.00 L 488.00 663.00 L 486.00 665.00 L 485.00 665.00 L 484.00 664.00 L 485.00 663.00 L 485.00 662.00 L 487.00 659.00 L 487.00 657.00 L 488.00 656.00 L 488.00 654.00 L 489.00 653.00 L 489.00 635.00 L 488.00 634.00 L 488.00 631.00 L 487.00 630.00 L 487.00 628.00 L 486.00 627.00 L 486.00 625.00 L 484.00 622.00 L 484.00 620.00 L 483.00 619.00 L 483.00 618.00 L 481.00 616.00 L 481.00 615.00 L 480.00 614.00 L 480.00 613.00 L 477.00 610.00 L 477.00 609.00 L 470.00 602.00 L 469.00 602.00 L 466.00 599.00 L 465.00 599.00 L 462.00 597.00 L 460.00 597.00 L 459.00 596.00 L 457.00 596.00 L 456.00 595.00 Z
M 478.00 586.00 L 483.00 586.00 L 484.00 585.00 L 486.00 585.00 L 487.00 586.00 L 489.00 586.00 L 490.00 587.00 L 491.00 587.00 L 492.00 588.00 L 493.00 588.00 L 495.00 590.00 L 496.00 590.00 L 503.00 597.00 L 503.00 598.00 L 507.00 602.00 L 507.00 603.00 L 508.00 604.00 L 508.00 605.00 L 510.00 607.00 L 510.00 609.00 L 511.00 610.00 L 511.00 611.00 L 512.00 612.00 L 512.00 614.00 L 513.00 615.00 L 513.00 616.00 L 514.00 617.00 L 514.00 620.00 L 515.00 621.00 L 515.00 626.00 L 516.00 627.00 L 516.00 637.00 L 515.00 638.00 L 515.00 643.00 L 514.00 644.00 L 514.00 646.00 L 513.00 647.00 L 513.00 648.00 L 512.00 649.00 L 512.00 650.00 L 509.00 653.00 L 508.00 653.00 L 507.00 654.00 L 506.00 654.00 L 505.00 653.00 L 506.00 652.00 L 506.00 651.00 L 507.00 650.00 L 507.00 647.00 L 508.00 646.00 L 508.00 628.00 L 507.00 627.00 L 507.00 623.00 L 506.00 622.00 L 506.00 620.00 L 505.00 619.00 L 505.00 617.00 L 504.00 616.00 L 504.00 614.00 L 503.00 613.00 L 503.00 612.00 L 502.00 611.00 L 502.00 610.00 L 501.00 609.00 L 501.00 608.00 L 499.00 606.00 L 499.00 605.00 L 497.00 603.00 L 497.00 602.00 L 488.00 593.00 L 487.00 593.00 L 485.00 591.00 L 484.00 591.00 L 483.00 590.00 L 482.00 590.00 L 481.00 589.00 L 480.00 589.00 L 479.00 588.00 L 478.00 588.00 L 477.00 587.00 Z
M 269.00 437.00 L 268.00 438.00 L 267.00 438.00 L 264.00 441.00 L 264.00 442.00 L 263.00 443.00 L 263.00 449.00 L 264.00 450.00 L 264.00 452.00 L 267.00 455.00 L 269.00 455.00 L 270.00 456.00 L 275.00 456.00 L 276.00 455.00 L 277.00 455.00 L 278.00 454.00 L 279.00 454.00 L 280.00 453.00 L 280.00 452.00 L 282.00 450.00 L 282.00 443.00 L 281.00 442.00 L 281.00 441.00 L 278.00 438.00 L 277.00 438.00 L 276.00 437.00 Z
M 313.00 358.00 L 312.00 359.00 L 310.00 359.00 L 307.00 362.00 L 307.00 363.00 L 306.00 364.00 L 306.00 366.00 L 305.00 367.00 L 305.00 368.00 L 306.00 369.00 L 306.00 371.00 L 307.00 372.00 L 307.00 373.00 L 309.00 375.00 L 310.00 375.00 L 311.00 376.00 L 312.00 376.00 L 313.00 377.00 L 315.00 377.00 L 316.00 376.00 L 318.00 376.00 L 320.00 374.00 L 321.00 374.00 L 321.00 373.00 L 323.00 371.00 L 323.00 364.00 L 322.00 363.00 L 322.00 362.00 L 319.00 359.00 L 317.00 359.00 L 316.00 358.00 Z
M 221.00 632.00 L 221.00 633.00 L 220.00 634.00 L 219.00 634.00 L 218.00 635.00 L 217.00 635.00 L 216.00 636.00 L 214.00 636.00 L 213.00 637.00 L 211.00 637.00 L 210.00 638.00 L 205.00 638.00 L 204.00 639.00 L 197.00 639.00 L 196.00 638.00 L 197.00 637.00 L 202.00 637.00 L 203.00 636.00 L 208.00 636.00 L 209.00 635.00 L 212.00 635.00 L 213.00 634.00 L 215.00 634.00 L 216.00 633.00 L 217.00 633.00 L 219.00 631.00 L 220.00 631.00 Z
M 372.00 640.00 L 369.00 640.00 L 368.00 641.00 L 365.00 641.00 L 364.00 642.00 L 362.00 642.00 L 362.00 644.00 L 361.00 645.00 L 361.00 647.00 L 362.00 647.00 L 362.00 646.00 L 365.00 643.00 L 367.00 643.00 L 368.00 642.00 L 370.00 642.00 L 371.00 641.00 L 372.00 641.00 Z
M 188.00 639.00 L 189.00 638.00 L 196.00 638.00 L 197.00 639.00 L 196.00 640.00 L 189.00 640.00 Z
M 185.00 679.00 L 186.00 678.00 L 189.00 678.00 L 190.00 679.00 L 189.00 680.00 L 186.00 680.00 Z
M 277.00 203.00 L 278.00 204.00 L 278.00 207.00 L 277.00 208.00 L 276.00 207.00 L 276.00 204.00 Z
M 500.00 180.00 L 501.00 179.00 L 503.00 179.00 L 504.00 180.00 L 503.00 181.00 L 501.00 181.00 Z
M 190.00 678.00 L 191.00 677.00 L 192.00 677.00 L 193.00 678.00 L 192.00 679.00 L 191.00 679.00 Z
M 45.00 642.00 L 46.00 641.00 L 47.00 641.00 L 48.00 642.00 L 47.00 643.00 L 46.00 643.00 Z
M 41.00 641.00 L 42.00 640.00 L 43.00 640.00 L 44.00 641.00 L 43.00 642.00 L 42.00 642.00 Z
M 38.00 640.00 L 39.00 639.00 L 40.00 639.00 L 41.00 640.00 L 40.00 641.00 L 39.00 641.00 Z
M 659.00 501.00 L 660.00 500.00 L 661.00 500.00 L 662.00 501.00 L 661.00 502.00 L 660.00 502.00 Z
M 504.00 179.00 L 505.00 178.00 L 506.00 178.00 L 507.00 179.00 L 506.00 180.00 L 505.00 180.00 Z"/>
  </g>
</svg>
